<svg xmlns="http://www.w3.org/2000/svg" xmlns:xlink="http://www.w3.org/1999/xlink" contentStyleType="text/css" height="2536px" preserveAspectRatio="none" style="width:1112px;height:2536px;background:#FFFFFF;" version="1.1" viewBox="0 0 1112 2536" width="1112px" zoomAndPan="magnify"><defs/><g><!--cluster Sistema de Gest?o para Cl?nica de Psicologia--><g id="cluster_Sistema de Gest&#227;o para Cl&#237;nica de Psicologia"><rect fill="none" height="1568" rx="2.5" ry="2.5" style="stroke:#181818;stroke-width:1.0;" width="643" x="251" y="335.94"/><text fill="#000000" font-family="sans-serif" font-size="14" font-weight="bold" lengthAdjust="spacing" textLength="302.668" x="421.166" y="352.4732">Sistema de Gest&#227;o para Cl&#237;nica de Psicologia</text></g><!--cluster Identidade e Acesso--><g id="cluster_Identidade e Acesso"><rect fill="none" height="268" rx="2.5" ry="2.5" style="stroke:#181818;stroke-width:1.0;" width="221" x="275" y="734.94"/><text fill="#000000" font-family="sans-serif" font-size="14" font-weight="bold" lengthAdjust="spacing" textLength="135.3789" x="317.8105" y="751.4732">Identidade e Acesso</text></g><!--cluster Cadastros--><g id="cluster_Cadastros"><rect fill="none" height="381" rx="2.5" ry="2.5" style="stroke:#181818;stroke-width:1.0;" width="228" x="642" y="693.94"/><text fill="#000000" font-family="sans-serif" font-size="14" font-weight="bold" lengthAdjust="spacing" textLength="68.4688" x="721.7656" y="710.4732">Cadastros</text></g><!--cluster Agendamento--><g id="cluster_Agendamento"><rect fill="none" height="199" rx="2.5" ry="2.5" style="stroke:#181818;stroke-width:1.0;" width="213" x="279" y="1026.94"/><text fill="#000000" font-family="sans-serif" font-size="14" font-weight="bold" lengthAdjust="spacing" textLength="93.3379" x="338.8311" y="1043.4732">Agendamento</text></g><!--cluster Atendimento e Prontu?rio--><g id="cluster_Atendimento e Prontu&#225;rio"><rect fill="none" height="316" rx="2.5" ry="2.5" style="stroke:#181818;stroke-width:1.0;" width="553" x="276" y="1563.94"/><text fill="#000000" font-family="sans-serif" font-size="14" font-weight="bold" lengthAdjust="spacing" textLength="171.8965" x="466.5518" y="1580.4732">Atendimento e Prontu&#225;rio</text></g><!--cluster Comunica??o--><g id="cluster_Comunica&#231;&#227;o"><rect fill="none" height="290" rx="2.5" ry="2.5" style="stroke:#181818;stroke-width:1.0;" width="200" x="656" y="379.94"/><text fill="#000000" font-family="sans-serif" font-size="14" font-weight="bold" lengthAdjust="spacing" textLength="91.7998" x="710.1001" y="396.4732">Comunica&#231;&#227;o</text></g><!--cluster Financeiro e Relat?rios--><g id="cluster_Financeiro e Relat&#243;rios"><rect fill="none" height="199" rx="2.5" ry="2.5" style="stroke:#181818;stroke-width:1.0;" width="191" x="290" y="379.94"/><text fill="#000000" font-family="sans-serif" font-size="14" font-weight="bold" lengthAdjust="spacing" textLength="154.8203" x="308.0898" y="396.4732">Financeiro e Relat&#243;rios</text></g><!--cluster Portal do Paciente--><g id="cluster_Portal do Paciente"><rect fill="none" height="290" rx="2.5" ry="2.5" style="stroke:#181818;stroke-width:1.0;" width="210" x="280.5" y="1249.94"/><text fill="#000000" font-family="sans-serif" font-size="14" font-weight="bold" lengthAdjust="spacing" textLength="122.1445" x="324.4277" y="1266.4732">Portal do Paciente</text></g><!--cluster Auditoria--><g id="cluster_Auditoria"><rect fill="none" height="108" rx="2.5" ry="2.5" style="stroke:#181818;stroke-width:1.0;" width="179" x="296" y="602.94"/><text fill="#000000" font-family="sans-serif" font-size="14" font-weight="bold" lengthAdjust="spacing" textLength="61.4414" x="354.7793" y="619.4732">Auditoria</text></g><g id="elem_UCAuth"><ellipse cx="385.7259" cy="788.0852" fill="#F8FAFC" rx="71.2259" ry="16.6452" style="stroke:#2563EB;stroke-width:0.5;"/><text fill="#000000" font-family="sans-serif" font-size="14" lengthAdjust="spacing" textLength="91.041" x="337.2054" y="792.6018">UC_Autenticar</text></g><g id="elem_UCSenha"><ellipse cx="385.5093" cy="867.8434" fill="#F8FAFC" rx="77.5093" ry="27.9034" style="stroke:#2563EB;stroke-width:0.5;"/><text fill="#000000" font-family="sans-serif" font-size="14" lengthAdjust="spacing" textLength="93.3721" x="338.8233" y="862.7672">UC_Recuperar</text><text fill="#000000" font-family="sans-serif" font-size="14" lengthAdjust="spacing" textLength="40.4824" x="365.2681" y="880.3766">Senha</text></g><g id="elem_UCRBAC"><ellipse cx="385.5579" cy="958.8434" fill="#F8FAFC" rx="94.5579" ry="27.9034" style="stroke:#2563EB;stroke-width:0.5;"/><text fill="#000000" font-family="sans-serif" font-size="14" lengthAdjust="spacing" textLength="80.9238" x="345.096" y="953.7672">UC_Controle</text><text fill="#000000" font-family="sans-serif" font-size="14" lengthAdjust="spacing" textLength="117.4824" x="326.8167" y="971.3766">de Acesso (RBAC)</text></g><g id="elem_UCCP"><ellipse cx="755.7541" cy="757.8434" fill="#F8FAFC" rx="74.7541" ry="27.9034" style="stroke:#2563EB;stroke-width:0.5;"/><text fill="#000000" font-family="sans-serif" font-size="14" lengthAdjust="spacing" textLength="89.4756" x="711.0163" y="752.7672">UC_Cadastrar</text><text fill="#000000" font-family="sans-serif" font-size="14" lengthAdjust="spacing" textLength="72.3652" x="719.5715" y="770.3766">Profissional</text></g><g id="elem_UCCPac"><ellipse cx="755.7541" cy="939.8434" fill="#F8FAFC" rx="74.7541" ry="27.9034" style="stroke:#2563EB;stroke-width:0.5;"/><text fill="#000000" font-family="sans-serif" font-size="14" lengthAdjust="spacing" textLength="89.4756" x="711.0163" y="934.7672">UC_Cadastrar</text><text fill="#000000" font-family="sans-serif" font-size="14" lengthAdjust="spacing" textLength="54.4824" x="728.5129" y="952.3766">Paciente</text></g><g id="elem_UCEsp"><ellipse cx="756.0749" cy="848.8434" fill="#F8FAFC" rx="78.0749" ry="27.9034" style="stroke:#2563EB;stroke-width:0.5;"/><text fill="#000000" font-family="sans-serif" font-size="14" lengthAdjust="spacing" textLength="71.5791" x="720.2853" y="843.7672">UC_Manter</text><text fill="#000000" font-family="sans-serif" font-size="14" lengthAdjust="spacing" textLength="94.1719" x="708.9889" y="861.3766">Especialidades</text></g><g id="elem_UCLGPD"><ellipse cx="755.9704" cy="1030.8688" fill="#F8FAFC" rx="97.9704" ry="27.9288" style="stroke:#2563EB;stroke-width:0.5;"/><text fill="#000000" font-family="sans-serif" font-size="14" lengthAdjust="spacing" textLength="122.1719" x="691.8845" y="1026.5807">UC_Consentimento</text><text fill="#000000" font-family="sans-serif" font-size="14" lengthAdjust="spacing" textLength="38.124" x="733.9084" y="1044.19">LGPD</text></g><g id="elem_UC01"><ellipse cx="385.7344" cy="1181.8434" fill="#ADD8E6" rx="90.7344" ry="27.9034" style="stroke:#2563EB;stroke-width:0.5;"/><text fill="#000000" font-family="sans-serif" font-size="14" font-weight="bold" lengthAdjust="spacing" textLength="35.793" x="367.8379" y="1176.7672">UC01</text><text fill="#000000" font-family="sans-serif" font-size="14" lengthAdjust="spacing" textLength="112.0752" x="329.6968" y="1194.3766">Agendar Consulta</text></g><g id="elem_UCCanc"><ellipse cx="385.4064" cy="1090.8434" fill="#F8FAFC" rx="70.9064" ry="27.9034" style="stroke:#2563EB;stroke-width:0.5;"/><text fill="#000000" font-family="sans-serif" font-size="14" lengthAdjust="spacing" textLength="84.0342" x="343.3893" y="1085.7672">UC_Cancelar</text><text fill="#000000" font-family="sans-serif" font-size="14" lengthAdjust="spacing" textLength="61.4551" x="354.6789" y="1103.3766">Remarcar</text></g><g id="elem_UC02"><ellipse cx="756.1593" cy="1819.7951" fill="#ADD8E6" rx="57.1593" ry="40.3551" style="stroke:#2563EB;stroke-width:0.5;"/><text fill="#000000" font-family="sans-serif" font-size="14" font-weight="bold" lengthAdjust="spacing" textLength="35.793" x="738.2628" y="1805.9143">UC02</text><text fill="#000000" font-family="sans-serif" font-size="14" lengthAdjust="spacing" textLength="43.5723" x="734.3731" y="1823.5236">Manter</text><text fill="#000000" font-family="sans-serif" font-size="14" lengthAdjust="spacing" textLength="64.5928" x="723.8629" y="1841.133">Prontu&#225;rio</text></g><g id="elem_UC03"><ellipse cx="385.2605" cy="1640.7951" fill="#ADD8E6" rx="85.7605" ry="40.3551" style="stroke:#2563EB;stroke-width:0.5;"/><text fill="#000000" font-family="sans-serif" font-size="14" font-weight="bold" lengthAdjust="spacing" textLength="35.793" x="367.364" y="1626.9143">UC03</text><text fill="#000000" font-family="sans-serif" font-size="14" lengthAdjust="spacing" textLength="105.041" x="332.74" y="1644.5236">Registrar Atendi-</text><text fill="#000000" font-family="sans-serif" font-size="14" lengthAdjust="spacing" textLength="98.0547" x="336.2332" y="1662.133">mento e Recibo</text></g><g id="elem_UCAnx"><ellipse cx="385.6552" cy="1744.8434" fill="#F8FAFC" rx="62.6552" ry="27.9034" style="stroke:#2563EB;stroke-width:0.5;"/><text fill="#000000" font-family="sans-serif" font-size="14" lengthAdjust="spacing" textLength="72.3652" x="349.4726" y="1739.7672">UC_Anexar</text><text fill="#000000" font-family="sans-serif" font-size="14" lengthAdjust="spacing" textLength="47.4688" x="361.9209" y="1757.3766">Arquivo</text></g><g id="elem_UCExp"><ellipse cx="385.4606" cy="1835.8434" fill="#F8FAFC" rx="93.4606" ry="27.9034" style="stroke:#2563EB;stroke-width:0.5;"/><text fill="#000000" font-family="sans-serif" font-size="14" lengthAdjust="spacing" textLength="80.917" x="345.0021" y="1830.7672">UC_Exportar</text><text fill="#000000" font-family="sans-serif" font-size="14" lengthAdjust="spacing" textLength="115.9307" x="327.4953" y="1848.3766">Prontu&#225;rio (LGPD)</text></g><g id="elem_UC04"><ellipse cx="756.117" cy="625.8434" fill="#ADD8E6" rx="84.117" ry="27.9034" style="stroke:#2563EB;stroke-width:0.5;"/><text fill="#000000" font-family="sans-serif" font-size="14" font-weight="bold" lengthAdjust="spacing" textLength="35.793" x="738.2205" y="620.7672">UC04</text><text fill="#000000" font-family="sans-serif" font-size="14" lengthAdjust="spacing" textLength="102.7168" x="704.7586" y="638.3766">Enviar Lembrete</text></g><g id="elem_UCTpl"><ellipse cx="756.0993" cy="443.8434" fill="#F8FAFC" rx="62.0993" ry="27.9034" style="stroke:#2563EB;stroke-width:0.5;"/><text fill="#000000" font-family="sans-serif" font-size="14" lengthAdjust="spacing" textLength="71.5791" x="720.3098" y="438.7672">UC_Manter</text><text fill="#000000" font-family="sans-serif" font-size="14" lengthAdjust="spacing" textLength="65.3584" x="723.4202" y="456.3766">Templates</text></g><g id="elem_UCLPgto"><ellipse cx="755.8803" cy="534.8434" fill="#F8FAFC" rx="75.8803" ry="27.9034" style="stroke:#2563EB;stroke-width:0.5;"/><text fill="#000000" font-family="sans-serif" font-size="14" lengthAdjust="spacing" textLength="87.1514" x="712.3047" y="529.7672">UC_Lembrete</text><text fill="#000000" font-family="sans-serif" font-size="14" lengthAdjust="spacing" textLength="91.0684" x="710.3462" y="547.3766">de Pagamento</text></g><g id="elem_UCDash"><ellipse cx="385.7183" cy="443.8434" fill="#F8FAFC" rx="79.7183" ry="27.9034" style="stroke:#2563EB;stroke-width:0.5;"/><text fill="#000000" font-family="sans-serif" font-size="14" lengthAdjust="spacing" textLength="96.4961" x="337.4703" y="438.7672">UC_Dashboard</text><text fill="#000000" font-family="sans-serif" font-size="14" lengthAdjust="spacing" textLength="65.3652" x="353.0357" y="456.3766">Financeiro</text></g><g id="elem_UC05"><ellipse cx="385.6576" cy="534.8434" fill="#ADD8E6" rx="79.1576" ry="27.9034" style="stroke:#2563EB;stroke-width:0.5;"/><text fill="#000000" font-family="sans-serif" font-size="14" font-weight="bold" lengthAdjust="spacing" textLength="35.793" x="367.7611" y="529.7672">UC05</text><text fill="#000000" font-family="sans-serif" font-size="14" lengthAdjust="spacing" textLength="95.7031" x="337.806" y="547.3766">Gerar Relat&#243;rio</text></g><g id="elem_UCPortal"><ellipse cx="385.6496" cy="1404.8434" fill="#F8FAFC" rx="57.1496" ry="27.9034" style="stroke:#2563EB;stroke-width:0.5;"/><text fill="#000000" font-family="sans-serif" font-size="14" lengthAdjust="spacing" textLength="64.5791" x="353.3601" y="1399.7672">UC_Portal</text><text fill="#000000" font-family="sans-serif" font-size="14" lengthAdjust="spacing" textLength="54.4824" x="358.4084" y="1417.3766">Paciente</text></g><g id="elem_UCPort"><ellipse cx="385.5764" cy="1495.8434" fill="#F8FAFC" rx="89.0764" ry="27.9034" style="stroke:#2563EB;stroke-width:0.5;"/><text fill="#000000" font-family="sans-serif" font-size="14" lengthAdjust="spacing" textLength="109.7305" x="330.7112" y="1490.7672">UC_Portabilidade</text><text fill="#000000" font-family="sans-serif" font-size="14" lengthAdjust="spacing" textLength="38.124" x="366.5144" y="1508.3766">LGPD</text></g><g id="elem_UCAnon"><ellipse cx="385.6665" cy="1313.8434" fill="#F8FAFC" rx="73.6665" ry="27.9034" style="stroke:#2563EB;stroke-width:0.5;"/><text fill="#000000" font-family="sans-serif" font-size="14" lengthAdjust="spacing" textLength="77.7998" x="346.7666" y="1308.7672">UC_Solicitar</text><text fill="#000000" font-family="sans-serif" font-size="14" lengthAdjust="spacing" textLength="87.9375" x="341.6977" y="1326.3766">Anonimiza&#231;&#227;o</text></g><g id="elem_UCAud"><ellipse cx="385.6568" cy="666.8434" fill="#F8FAFC" rx="73.6568" ry="27.9034" style="stroke:#2563EB;stroke-width:0.5;"/><text fill="#000000" font-family="sans-serif" font-size="14" lengthAdjust="spacing" textLength="87.9238" x="341.6949" y="661.7672">UC_Consultar</text><text fill="#000000" font-family="sans-serif" font-size="14" lengthAdjust="spacing" textLength="55.2549" x="358.0294" y="679.3766">Auditoria</text></g><!--entity Admin--><g id="elem_Admin"><ellipse cx="49.1826" cy="153.44" fill="#F1F1F1" rx="16" ry="16" style="stroke:#181818;stroke-width:0.5;"/><path d="M49.1826,173.44 C53.1826,173.44 56.1826,173.44 60.1826,169.44 C68.1826,169.44 76.1826,177.44 76.1826,185.44 L76.1826,189.44 C76.1826,193.44 72.1826,197.44 68.1826,197.44 L30.1826,197.44 C26.1826,197.44 22.1826,193.44 22.1826,189.44 L22.1826,185.44 C22.1826,177.44 30.1826,169.44 38.1826,169.44 C42.1826,173.44 45.1826,173.44 49.1826,173.44 " fill="#F1F1F1" style="stroke:#181818;stroke-width:0.5;"/><text fill="#000000" font-family="sans-serif" font-size="14" lengthAdjust="spacing" textLength="86.3652" x="6" y="212.4732">Administrador</text><text fill="#000000" font-family="sans-serif" font-size="14" lengthAdjust="spacing" textLength="62.2549" x="6" y="230.0826">da Cl&#237;nica</text></g><!--entity Prof--><g id="elem_Prof"><ellipse cx="49.1826" cy="1609.44" fill="#F1F1F1" rx="16" ry="16" style="stroke:#181818;stroke-width:0.5;"/><path d="M49.1826,1629.44 C53.1826,1629.44 56.1826,1629.44 60.1826,1625.44 C68.1826,1625.44 76.1826,1633.44 76.1826,1641.44 L76.1826,1645.44 C76.1826,1649.44 72.1826,1653.44 68.1826,1653.44 L30.1826,1653.44 C26.1826,1653.44 22.1826,1649.44 22.1826,1645.44 L22.1826,1641.44 C22.1826,1633.44 30.1826,1625.44 38.1826,1625.44 C42.1826,1629.44 45.1826,1629.44 49.1826,1629.44 " fill="#F1F1F1" style="stroke:#181818;stroke-width:0.5;"/><text fill="#000000" font-family="sans-serif" font-size="14" lengthAdjust="spacing" textLength="72.3652" x="13" y="1668.4732">Profissional</text><text fill="#000000" font-family="sans-serif" font-size="14" lengthAdjust="spacing" textLength="70.0273" x="13" y="1686.0826">(Psic&#243;logo)</text></g><!--entity Sec--><g id="elem_Sec"><ellipse cx="48.9033" cy="764.94" fill="#F1F1F1" rx="16" ry="16" style="stroke:#181818;stroke-width:0.5;"/><path d="M48.9033,784.94 C52.9033,784.94 55.9033,784.94 59.9033,780.94 C67.9033,780.94 75.9033,788.94 75.9033,796.94 L75.9033,800.94 C75.9033,804.94 71.9033,808.94 67.9033,808.94 L29.9033,808.94 C25.9033,808.94 21.9033,804.94 21.9033,800.94 L21.9033,796.94 C21.9033,788.94 29.9033,780.94 37.9033,780.94 C41.9033,784.94 44.9033,784.94 48.9033,784.94 " fill="#F1F1F1" style="stroke:#181818;stroke-width:0.5;"/><text fill="#000000" font-family="sans-serif" font-size="14" lengthAdjust="spacing" textLength="63.8066" x="17" y="823.9732">Secret&#225;ria</text></g><!--entity Pac--><g id="elem_Pac"><ellipse cx="49" cy="1158.94" fill="#F1F1F1" rx="16" ry="16" style="stroke:#181818;stroke-width:0.5;"/><path d="M49,1178.94 C53,1178.94 56,1178.94 60,1174.94 C68,1174.94 76,1182.94 76,1190.94 L76,1194.94 C76,1198.94 72,1202.94 68,1202.94 L30,1202.94 C26,1202.94 22,1198.94 22,1194.94 L22,1190.94 C22,1182.94 30,1174.94 38,1174.94 C42,1178.94 45,1178.94 49,1178.94 " fill="#F1F1F1" style="stroke:#181818;stroke-width:0.5;"/><text fill="#000000" font-family="sans-serif" font-size="14" lengthAdjust="spacing" textLength="54.4824" x="21.7588" y="1217.9732">Paciente</text></g><!--entity Mensageria--><g id="elem_Mensageria"><ellipse cx="1051.0723" cy="558.0494" fill="#F1F1F1" rx="16" ry="16" style="stroke:#181818;stroke-width:0.5;"/><path d="M1051.0723,578.0494 C1055.0723,578.0494 1058.0723,578.0494 1062.0723,574.0494 C1070.0723,574.0494 1078.0723,582.0494 1078.0723,590.0494 L1078.0723,594.0494 C1078.0723,598.0494 1074.0723,602.0494 1070.0723,602.0494 L1032.0723,602.0494 C1028.0723,602.0494 1024.0723,598.0494 1024.0723,594.0494 L1024.0723,590.0494 C1024.0723,582.0494 1032.0723,574.0494 1040.0723,574.0494 C1044.0723,578.0494 1047.0723,578.0494 1051.0723,578.0494 " fill="#F1F1F1" style="stroke:#181818;stroke-width:0.5;"/><text fill="#000000" font-family="sans-serif" font-size="14" lengthAdjust="spacing" textLength="70.0342" x="997" y="617.0826">Sistema de</text><text fill="#000000" font-family="sans-serif" font-size="14" lengthAdjust="spacing" textLength="108.1445" x="997" y="634.692">WhatsApp/E-mail</text><text fill="#000000" font-family="sans-serif" font-size="14" font-style="italic" lengthAdjust="spacing" textLength="65.3789" x="1018.3828" y="538.4732">&#171;external&#187;</text></g><!--entity PDF--><g id="elem_PDF"><ellipse cx="756.0239" cy="2343.0494" fill="#F1F1F1" rx="16" ry="16" style="stroke:#181818;stroke-width:0.5;"/><path d="M756.0239,2363.0494 C760.0239,2363.0494 763.0239,2363.0494 767.0239,2359.0494 C775.0239,2359.0494 783.0239,2367.0494 783.0239,2375.0494 L783.0239,2379.0494 C783.0239,2383.0494 779.0239,2387.0494 775.0239,2387.0494 L737.0239,2387.0494 C733.0239,2387.0494 729.0239,2383.0494 729.0239,2379.0494 L729.0239,2375.0494 C729.0239,2367.0494 737.0239,2359.0494 745.0239,2359.0494 C749.0239,2363.0494 752.0239,2363.0494 756.0239,2363.0494 " fill="#F1F1F1" style="stroke:#181818;stroke-width:0.5;"/><text fill="#000000" font-family="sans-serif" font-size="14" lengthAdjust="spacing" textLength="70.0342" x="703.5" y="2402.0826">Sistema de</text><text fill="#000000" font-family="sans-serif" font-size="14" lengthAdjust="spacing" textLength="105.0479" x="703.5" y="2419.692">Gera&#231;&#227;o de PDF</text><text fill="#000000" font-family="sans-serif" font-size="14" font-style="italic" lengthAdjust="spacing" textLength="65.3789" x="723.3345" y="2323.4732">&#171;external&#187;</text></g><!--entity Pgto--><g id="elem_Pgto"><ellipse cx="756.1343" cy="2194.0494" fill="#F1F1F1" rx="16" ry="16" style="stroke:#181818;stroke-width:0.5;"/><path d="M756.1343,2214.0494 C760.1343,2214.0494 763.1343,2214.0494 767.1343,2210.0494 C775.1343,2210.0494 783.1343,2218.0494 783.1343,2226.0494 L783.1343,2230.0494 C783.1343,2234.0494 779.1343,2238.0494 775.1343,2238.0494 L737.1343,2238.0494 C733.1343,2238.0494 729.1343,2234.0494 729.1343,2230.0494 L729.1343,2226.0494 C729.1343,2218.0494 737.1343,2210.0494 745.1343,2210.0494 C749.1343,2214.0494 752.1343,2214.0494 756.1343,2214.0494 " fill="#F1F1F1" style="stroke:#181818;stroke-width:0.5;"/><text fill="#000000" font-family="sans-serif" font-size="14" lengthAdjust="spacing" textLength="76.2686" x="718" y="2253.0826">Provedor de</text><text fill="#000000" font-family="sans-serif" font-size="14" lengthAdjust="spacing" textLength="71.6064" x="718" y="2270.692">Pagamento</text><text fill="#000000" font-family="sans-serif" font-size="14" font-style="italic" lengthAdjust="spacing" textLength="65.3789" x="723.4448" y="2174.4732">&#171;external&#187;</text></g><!--entity Audit--><g id="elem_Audit"><ellipse cx="1051.0171" cy="1979.0494" fill="#F1F1F1" rx="16" ry="16" style="stroke:#181818;stroke-width:0.5;"/><path d="M1051.0171,1999.0494 C1055.0171,1999.0494 1058.0171,1999.0494 1062.0171,1995.0494 C1070.0171,1995.0494 1078.0171,2003.0494 1078.0171,2011.0494 L1078.0171,2015.0494 C1078.0171,2019.0494 1074.0171,2023.0494 1070.0171,2023.0494 L1032.0171,2023.0494 C1028.0171,2023.0494 1024.0171,2019.0494 1024.0171,2015.0494 L1024.0171,2011.0494 C1024.0171,2003.0494 1032.0171,1995.0494 1040.0171,1995.0494 C1044.0171,1999.0494 1047.0171,1999.0494 1051.0171,1999.0494 " fill="#F1F1F1" style="stroke:#181818;stroke-width:0.5;"/><text fill="#000000" font-family="sans-serif" font-size="14" lengthAdjust="spacing" textLength="70.0342" x="1016" y="2038.0826">Sistema de</text><text fill="#000000" font-family="sans-serif" font-size="14" lengthAdjust="spacing" textLength="55.2549" x="1016" y="2055.692">Auditoria</text><text fill="#000000" font-family="sans-serif" font-size="14" font-style="italic" lengthAdjust="spacing" textLength="59.9102" x="1021.062" y="1959.4732">&#171;system&#187;</text></g><!--link Admin to UCAuth--><g id="link_Admin_UCAuth"><path d="M92.09,223.84 C101.52,231.44 111.77,238.91 122,244.94 C168.42,272.33 204.16,244.74 235,288.94 C248.42,308.17 230.83,690.9 243,710.94 C263.54,744.77 298.9186,762.8008 331.5486,773.8808 " fill="none" id="Admin-to-UCAuth" style="stroke:#475569;stroke-width:1.0;"/><polygon fill="#475569" points="337.23,775.81,329.994,769.1286,332.4955,774.2023,327.4218,776.7038,337.23,775.81" style="stroke:#475569;stroke-width:1.0;"/></g><!--link Admin to UCCP--><g id="link_Admin_UCCP"><path d="M71.58,136.83 C83.37,116.63 100.08,95.24 122,83.94 C263.59,11 527.81,55.41 626,177.94 C643.09,199.28 621.4,645.69 634,669.94 C649.51,699.79 675.0305,719.0725 701.6605,733.6925 " fill="none" id="Admin-to-UCCP" style="stroke:#475569;stroke-width:1.0;"/><polygon fill="#475569" points="706.92,736.58,700.9557,728.7424,702.5371,734.1738,697.1057,735.7551,706.92,736.58" style="stroke:#475569;stroke-width:1.0;"/></g><!--link Admin to UCEsp--><g id="link_Admin_UCEsp"><path d="M92.28,145.62 C101.46,139.18 111.57,133.47 122,129.94 C169.57,113.85 186.83,115.72 235,129.94 C436.1,189.31 529.66,207.71 626,393.94 C636.44,414.13 620.91,784.36 634,802.94 C645.97,819.94 659.42,828.6974 678.95,835.4574 " fill="none" id="Admin-to-UCEsp" style="stroke:#475569;stroke-width:1.0;"/><polygon fill="#475569" points="684.62,837.42,677.4234,830.6962,679.895,835.7845,674.8067,838.2561,684.62,837.42" style="stroke:#475569;stroke-width:1.0;"/></g><!--link Admin to UCRBAC--><g id="link_Admin_UCRBAC"><path d="M68.28,233.09 C106.54,336.21 194.86,586.76 235,804.94 C237.18,816.78 235.57,903.48 243,912.94 C256.63,930.32 271.2323,939.37 292.2423,946.18 " fill="none" id="Admin-to-UCRBAC" style="stroke:#475569;stroke-width:1.0;"/><polygon fill="#475569" points="297.95,948.03,290.6219,941.4498,293.1936,946.4883,288.1552,949.0601,297.95,948.03" style="stroke:#475569;stroke-width:1.0;"/></g><!--link Admin to UCDash--><g id="link_Admin_UCDash"><path d="M92.2,164.51 C133.69,147.72 196.27,131.76 235,165.94 C245.75,175.43 238.03,216.5 243,229.94 C270.5,304.3 324.2899,374.1434 356.8799,412.5834 " fill="none" id="Admin-to-UCDash" style="stroke:#475569;stroke-width:1.0;"/><polygon fill="#475569" points="360.76,417.16,357.9909,407.7084,357.5266,413.3462,351.8888,412.8819,360.76,417.16" style="stroke:#475569;stroke-width:1.0;"/></g><!--link Admin to UC05--><g id="link_Admin_UC05"><path d="M92.21,176.02 C134.96,169.73 199.65,168.26 235,206.94 C256.15,230.08 224.22,463.85 243,488.94 C258.63,509.83 278.1355,519.9196 303.0755,526.2696 " fill="none" id="Admin-to-UC05" style="stroke:#475569;stroke-width:1.0;"/><polygon fill="#475569" points="308.89,527.75,301.1552,521.653,304.0446,526.5163,299.1813,529.4057,308.89,527.75" style="stroke:#475569;stroke-width:1.0;"/></g><!--link Admin to UCAud--><g id="link_Admin_UCAud"><path d="M92.09,196.53 C143.94,211.22 226.26,236.05 235,247.94 C256.77,277.6 224.74,547.01 243,578.94 C261.95,612.1 293.4917,632.0355 324.9117,645.9155 " fill="none" id="Admin-to-UCAud" style="stroke:#475569;stroke-width:1.0;"/><polygon fill="#475569" points="330.4,648.34,323.7838,641.0444,325.8264,646.3196,320.5512,648.3621,330.4,648.34" style="stroke:#475569;stroke-width:1.0;"/></g><!--link Prof to UCAuth--><g id="link_Prof_UCAuth"><path d="M76.73,1592.79 C119.77,1512.3 202.88,1344.04 235,1189.94 C239.17,1169.93 230.17,837.87 243,821.94 C260.12,800.7 282.0389,792.1688 308.5289,788.4288 " fill="none" id="Prof-to-UCAuth" style="stroke:#475569;stroke-width:1.0;"/><polygon fill="#475569" points="314.47,787.59,304.9992,784.8875,309.5191,788.289,306.1176,792.8089,314.47,787.59" style="stroke:#475569;stroke-width:1.0;"/></g><!--link Prof to UC02--><g id="link_Prof_UC02"><path d="M65.66,1688.98 C77.64,1720.78 96.47,1762.15 122,1792.94 C164.44,1844.14 179.76,1860.38 243,1880.94 C406.45,1934.1 607.0808,1875.2592 700.0108,1841.4892 " fill="none" id="Prof-to-UC02" style="stroke:#475569;stroke-width:1.0;"/><polygon fill="#475569" points="705.65,1839.44,695.825,1838.7544,700.9507,1841.1477,698.5574,1846.2733,705.65,1839.44" style="stroke:#475569;stroke-width:1.0;"/></g><!--link Prof to UC03--><g id="link_Prof_UC03"><path d="M85.17,1640.94 C135.57,1640.94 223.92,1640.94 293.27,1640.94 " fill="none" id="Prof-to-UC03" style="stroke:#475569;stroke-width:1.0;"/><polygon fill="#475569" points="299.27,1640.94,290.27,1636.94,294.27,1640.94,290.27,1644.94,299.27,1640.94" style="stroke:#475569;stroke-width:1.0;"/></g><!--link Prof to UCAnx--><g id="link_Prof_UCAnx"><path d="M85.17,1651.88 C144.54,1670.34 259.1806,1705.9785 327.8106,1727.3185 " fill="none" id="Prof-to-UCAnx" style="stroke:#475569;stroke-width:1.0;"/><polygon fill="#475569" points="333.54,1729.1,326.1336,1722.6081,328.7655,1727.6154,323.7582,1730.2473,333.54,1729.1" style="stroke:#475569;stroke-width:1.0;"/></g><!--link Prof to UCExp--><g id="link_Prof_UCExp"><path d="M85.2,1673.67 C96.69,1683.97 109.67,1695.19 122,1704.94 C173.53,1745.73 184.21,1760.57 243,1789.94 C265.41,1801.14 285.4303,1808.6794 308.7603,1815.9294 " fill="none" id="Prof-to-UCExp" style="stroke:#475569;stroke-width:1.0;"/><polygon fill="#475569" points="314.49,1817.71,307.0825,1811.2194,309.7152,1816.2262,304.7084,1818.859,314.49,1817.71" style="stroke:#475569;stroke-width:1.0;"/></g><!--link Prof to UC05--><g id="link_Prof_UC05"><path d="M54.55,1592.6 C63.91,1497.77 87.35,1280.89 122,1100.94 C163.44,885.75 113.68,799.87 243,622.94 C265.28,592.47 296.1995,572.7835 326.4695,558.2735 " fill="none" id="Prof-to-UC05" style="stroke:#475569;stroke-width:1.0;"/><polygon fill="#475569" points="331.88,555.68,322.0352,555.9633,327.3712,557.8413,325.4933,563.1773,331.88,555.68" style="stroke:#475569;stroke-width:1.0;"/></g><!--link Prof to UC01--><g id="link_Prof_UC01"><path d="M85.32,1622.32 C129.47,1596.84 203.11,1546.58 235,1479.94 C245.08,1458.88 231.27,1290.14 243,1269.94 C261.16,1238.68 289.8885,1219.4879 320.0885,1205.4579 " fill="none" id="Prof-to-UC01" style="stroke:#475569;stroke-width:1.0;"/><polygon fill="#475569" points="325.53,1202.93,315.6825,1203.0943,320.9954,1205.0366,319.0531,1210.3495,325.53,1202.93" style="stroke:#475569;stroke-width:1.0;"/></g><!--link Sec to UCAuth--><g id="link_Sec_UCAuth"><path d="M81.17,787.94 C134.04,787.94 236.56,787.94 308.42,787.94 " fill="none" id="Sec-to-UCAuth" style="stroke:#475569;stroke-width:1.0;"/><polygon fill="#475569" points="314.42,787.94,305.42,783.94,309.42,787.94,305.42,791.94,314.42,787.94" style="stroke:#475569;stroke-width:1.0;"/></g><!--link Sec to UCCPac--><g id="link_Sec_UCCPac"><path d="M64.44,748.25 C78.39,710.54 100.52,652.42 122,602.94 C168.16,496.64 186.35,473.13 235,367.94 C238.68,360 235.66,354.71 243,349.94 C340.27,286.73 397.9,303.06 504,349.94 C577.67,382.5 596.2,409.12 626,483.94 C634.43,505.11 620.88,875.32 634,893.94 C646.36,911.49 660.6371,920.4552 680.8271,927.1752 " fill="none" id="Sec-to-UCCPac" style="stroke:#475569;stroke-width:1.0;"/><polygon fill="#475569" points="686.52,929.07,679.2438,922.4325,681.7759,927.491,676.7174,930.0231,686.52,929.07" style="stroke:#475569;stroke-width:1.0;"/></g><!--link Sec to UC01--><g id="link_Sec_UC01"><path d="M81.14,823.48 C93.09,835.75 107.38,848.92 122,858.94 C167.44,890.11 204.29,864.19 235,909.94 C249,930.81 227.88,1115.88 243,1135.94 C256.92,1154.41 272.6613,1163.8285 294.7113,1170.5585 " fill="none" id="Sec-to-UC01" style="stroke:#475569;stroke-width:1.0;"/><polygon fill="#475569" points="300.45,1172.31,293.0097,1165.8569,295.6678,1170.8504,290.6743,1173.5085,300.45,1172.31" style="stroke:#475569;stroke-width:1.0;"/></g><!--link Sec to UCCanc--><g id="link_Sec_UCCanc"><path d="M81.22,794.87 C128.89,806.14 216.27,829.71 235,854.94 C254.63,881.39 226.23,974.6 243,1002.94 C262.66,1036.18 294.8114,1056.2661 326.3314,1070.1861 " fill="none" id="Sec-to-UCCanc" style="stroke:#475569;stroke-width:1.0;"/><polygon fill="#475569" points="331.82,1072.61,325.203,1065.3151,327.2462,1070.5901,321.9712,1072.6332,331.82,1072.61" style="stroke:#475569;stroke-width:1.0;"/></g><!--link Sec to UC03--><g id="link_Sec_UC03"><path d="M72.29,827.53 C86.39,852.42 105.08,885.16 122,913.94 C171.2,997.66 208.08,1007.64 235,1100.94 C241.76,1124.38 231.64,1518.36 243,1539.94 C260.01,1572.26 287.3232,1593.6437 316.9132,1610.3237 " fill="none" id="Sec-to-UC03" style="stroke:#475569;stroke-width:1.0;"/><polygon fill="#475569" points="322.14,1613.27,316.2641,1605.366,317.7844,1610.8147,312.3356,1612.335,322.14,1613.27" style="stroke:#475569;stroke-width:1.0;"/></g><!--link Sec to UCTpl--><g id="link_Sec_UCTpl"><path d="M52.74,748.13 C59.93,652.28 81.6,411.56 122,342.94 C233.93,152.86 303.56,108.14 512,35.94 C559.88,19.36 585.13,6 626,35.94 C689.52,82.48 735.3028,325.8234 749.5128,410.1334 " fill="none" id="Sec-to-UCTpl" style="stroke:#475569;stroke-width:1.0;"/><polygon fill="#475569" points="750.51,416.05,752.9586,406.5104,749.679,411.1195,745.0698,407.84,750.51,416.05" style="stroke:#475569;stroke-width:1.0;"/></g><!--link Sec to UCLPgto--><g id="link_Sec_UCLPgto"><path d="M50.08,748.42 C52.77,648.09 76.06,385.73 243,303.94 C347.17,252.91 393.81,267.7 504,303.94 C568.01,325 593.13,335.13 626,393.94 C636.34,412.44 621.25,472.02 634,488.94 C646.78,505.91 660.9277,514.6836 680.8677,521.4436 " fill="none" id="Sec-to-UCLPgto" style="stroke:#475569;stroke-width:1.0;"/><polygon fill="#475569" points="686.55,523.37,679.3108,516.6922,681.8147,521.7647,676.7422,524.2686,686.55,523.37" style="stroke:#475569;stroke-width:1.0;"/></g><!--link Pac to UCAuth--><g id="link_Pac_UCAuth"><path d="M59.71,1142.17 C80.11,1067.29 134.79,905.45 243,821.94 C264.1,805.66 285.9333,798.074 311.2633,793.554 " fill="none" id="Pac-to-UCAuth" style="stroke:#475569;stroke-width:1.0;"/><polygon fill="#475569" points="317.17,792.5,307.6073,790.1432,312.2478,793.3783,309.0126,798.0188,317.17,792.5" style="stroke:#475569;stroke-width:1.0;"/></g><!--link Pac to UCPortal--><g id="link_Pac_UCPortal"><path d="M76.56,1213.84 C89.56,1228.6 105.85,1245.93 122,1259.94 C168.09,1299.94 197.33,1289.93 235,1337.94 C241.17,1345.8 235.76,1352.06 243,1358.94 C266.39,1381.2 294.802,1391.4864 323.762,1397.4164 " fill="none" id="Pac-to-UCPortal" style="stroke:#475569;stroke-width:1.0;"/><polygon fill="#475569" points="329.64,1398.62,321.6254,1392.8959,324.7416,1397.617,320.0205,1400.7333,329.64,1398.62" style="stroke:#475569;stroke-width:1.0;"/></g><!--link Pac to UC01--><g id="link_Pac_UC01"><path d="M76.53,1181.94 C123.12,1181.94 215.63,1181.94 288.76,1181.94 " fill="none" id="Pac-to-UC01" style="stroke:#475569;stroke-width:1.0;"/><polygon fill="#475569" points="294.76,1181.94,285.76,1177.94,289.76,1181.94,285.76,1185.94,294.76,1181.94" style="stroke:#475569;stroke-width:1.0;"/><text fill="#000000" font-family="sans-serif" font-size="13" lengthAdjust="spacing" textLength="111.3125" x="123" y="1178.4351">&#171;autoatendimento&#187;</text></g><!--link Pac to UCCanc--><g id="link_Pac_UCCanc"><path d="M76.79,1171.52 C90.24,1166.48 106.87,1160.54 122,1155.94 C190.06,1135.29 263.6466,1117.6381 317.1566,1105.5881 " fill="none" id="Pac-to-UCCanc" style="stroke:#475569;stroke-width:1.0;"/><polygon fill="#475569" points="323.01,1104.27,313.3511,1102.3449,318.1322,1105.3685,315.1086,1110.1495,323.01,1104.27" style="stroke:#475569;stroke-width:1.0;"/><text fill="#000000" font-family="sans-serif" font-size="13" lengthAdjust="spacing" textLength="54.9263" x="151.5" y="1123.4351">&#171;pr&#243;prio&#187;</text></g><!--link Pac to UCLGPD--><g id="link_Pac_UCLGPD"><path d="M57.81,1142.34 C70.36,1079.5 96.23,953.17 122,846.94 C134.13,796.94 202.14,431.22 243,399.94 C335.12,329.45 403.7,341.67 504,399.94 C598.66,454.94 596.81,508.42 626,613.94 C631.5,633.81 622.11,968.1 634,984.94 C643.85,998.9 652.9984,1006.2489 668.7584,1013.0289 " fill="none" id="Pac-to-UCLGPD" style="stroke:#475569;stroke-width:1.0;"/><polygon fill="#475569" points="674.27,1015.4,667.5833,1008.1689,669.677,1013.4241,664.4218,1015.5177,674.27,1015.4" style="stroke:#475569;stroke-width:1.0;"/></g><!--link Pac to UCPort--><g id="link_Pac_UCPort"><path d="M62.56,1221.55 C74.51,1255.52 94.72,1304.72 122,1341.94 C164.61,1400.08 180.5,1414.03 243,1449.94 C264.73,1462.43 284.5621,1470.296 307.9521,1477.446 " fill="none" id="Pac-to-UCPort" style="stroke:#475569;stroke-width:1.0;"/><polygon fill="#475569" points="313.69,1479.2,306.2525,1472.7437,308.9084,1477.7383,303.9138,1480.3943,313.69,1479.2" style="stroke:#475569;stroke-width:1.0;"/></g><!--link Pac to UCAnon--><g id="link_Pac_UCAnon"><path d="M76.53,1192.41 C132.16,1214.36 256.2286,1263.3281 328.3186,1291.7681 " fill="none" id="Pac-to-UCAnon" style="stroke:#475569;stroke-width:1.0;"/><polygon fill="#475569" points="333.9,1293.97,326.9959,1286.9463,329.2489,1292.1351,324.06,1294.3881,333.9,1293.97" style="stroke:#475569;stroke-width:1.0;"/></g><!--link UC04 to Mensageria--><g id="link_UC04_Mensageria"><path d="M832.84,614.3 C884.21,606.41 944.9094,597.0797 990.7394,590.0497 " fill="none" id="UC04-to-Mensageria" style="stroke:#475569;stroke-width:1.0;"/><polygon fill="#475569" points="996.67,589.14,987.1676,586.5508,991.7278,589.8981,988.3805,594.4583,996.67,589.14" style="stroke:#475569;stroke-width:1.0;"/></g><!--link UCLPgto to Mensageria--><g id="link_UCLPgto_Mensageria"><path d="M826.44,545.85 C878.56,554.03 942.9426,564.1392 990.7026,571.6392 " fill="none" id="UCLPgto-to-Mensageria" style="stroke:#475569;stroke-width:1.0;"/><polygon fill="#475569" points="996.63,572.57,988.3595,567.2222,991.6905,571.7943,987.1184,575.1254,996.63,572.57" style="stroke:#475569;stroke-width:1.0;"/></g><!--link UC03 to PDF--><g id="link_UC03_PDF"><path d="M459.29,1661.83 C476.85,1670.44 493.54,1682.41 504,1698.94 C518.91,1722.52 499.3,2176.11 512,2200.94 C551.25,2277.66 639.001,2322.7921 697.901,2346.1021 " fill="none" id="UC03-to-PDF" style="stroke:#475569;stroke-width:1.0;"/><polygon fill="#475569" points="703.48,2348.31,696.5835,2341.2788,698.8308,2346.4701,693.6396,2348.7175,703.48,2348.31" style="stroke:#475569;stroke-width:1.0;"/></g><!--link UCExp to PDF--><g id="link_UCExp_PDF"><path d="M389.94,1864.1 C401.88,1957.26 444.58,2253.21 512,2316.94 C563.29,2365.43 642.5926,2372.0766 697.2826,2370.4666 " fill="none" id="UCExp-to-PDF" style="stroke:#475569;stroke-width:1.0;"/><polygon fill="#475569" points="703.28,2370.29,694.1662,2366.5566,698.2822,2370.4371,694.4016,2374.5531,703.28,2370.29" style="stroke:#475569;stroke-width:1.0;"/></g><!--link UC03 to Pgto--><g id="link_UC03_Pgto"><path d="M459.25,1661.86 C476.81,1670.46 493.51,1682.43 504,1698.94 C516.42,1718.51 498.95,2096.79 512,2115.94 C558.81,2184.66 655.927,2205.9705 711.607,2212.9805 " fill="none" id="UC03-to-Pgto" style="stroke:#475569;stroke-width:1.0;"/><polygon fill="#475569" points="717.56,2213.73,709.1301,2208.6371,712.5992,2213.1054,708.1308,2216.5745,717.56,2213.73" style="stroke:#475569;stroke-width:1.0;"/></g><!--link UC01 to Audit--><g id="link_UC01_Audit"><path d="M436.28,1205.35 C461.45,1220.07 489.63,1241.65 504,1269.94 C512.43,1286.54 500.71,1925.15 512,1939.94 C572.95,2019.84 901.1979,2009.8477 1009.8679,2004.2677 " fill="none" id="UC01-to-Audit" style="stroke:#475569;stroke-width:1.0;stroke-dasharray:7.0,7.0;"/><polygon fill="#475569" points="1015.86,2003.96,1006.6667,2000.4268,1010.8666,2004.2164,1007.077,2008.4163,1015.86,2003.96" style="stroke:#475569;stroke-width:1.0;"/><text fill="#000000" font-family="sans-serif" font-size="13" lengthAdjust="spacing" textLength="55.6563" x="728.5" y="1989.4351">&#171;include&#187;</text></g><!--link UC02 to Audit--><g id="link_UC02_Audit"><path d="M812.16,1828.09 C857.22,1836.89 920.77,1854.43 967,1887.94 C987.61,1902.89 1001.8535,1919.5166 1015.4435,1939.9166 " fill="none" id="UC02-to-Audit" style="stroke:#475569;stroke-width:1.0;stroke-dasharray:7.0,7.0;"/><polygon fill="#475569" points="1018.77,1944.91,1017.1092,1935.2022,1015.9979,1940.7488,1010.4513,1939.6375,1018.77,1944.91" style="stroke:#475569;stroke-width:1.0;"/><text fill="#000000" font-family="sans-serif" font-size="13" lengthAdjust="spacing" textLength="55.6563" x="911" y="1855.4351">&#171;include&#187;</text></g><!--link UC03 to Audit--><g id="link_UC03_Audit"><path d="M459.2,1661.89 C476.76,1670.5 493.47,1682.46 504,1698.94 C523.68,1729.76 489.64,1999.01 512,2027.94 C632.07,2183.34 911.7658,2068.8757 1010.3458,2021.7957 " fill="none" id="UC03-to-Audit" style="stroke:#475569;stroke-width:1.0;stroke-dasharray:7.0,7.0;"/><polygon fill="#475569" points="1015.76,2019.21,1005.9148,2019.4791,1011.2481,2021.3648,1009.3625,2026.6981,1015.76,2019.21" style="stroke:#475569;stroke-width:1.0;"/><text fill="#000000" font-family="sans-serif" font-size="13" lengthAdjust="spacing" textLength="55.6563" x="728.5" y="2065.4351">&#171;include&#187;</text></g><!--link UCExp to Audit--><g id="link_UCExp_Audit"><path d="M386.24,1864.14 C386.8,1948.96 398.31,2206.23 512,2373.94 C549.08,2428.65 570.95,2439.15 634,2458.94 C747.64,2494.63 805.67,2529 902,2458.94 C967.76,2411.12 1018.1123,2176.8887 1038.9023,2065.1687 " fill="none" id="UCExp-to-Audit" style="stroke:#475569;stroke-width:1.0;stroke-dasharray:7.0,7.0;"/><polygon fill="#475569" points="1040,2059.27,1034.421,2067.3863,1039.0853,2064.1856,1042.2859,2068.8499,1040,2059.27" style="stroke:#475569;stroke-width:1.0;"/><text fill="#000000" font-family="sans-serif" font-size="13" lengthAdjust="spacing" textLength="55.6563" x="728.5" y="2455.4351">&#171;include&#187;</text></g><!--link UCRBAC to Audit--><g id="link_UCRBAC_Audit"><path d="M436.61,982.52 C461.71,997.22 489.72,1018.75 504,1046.94 C514.45,1067.59 497.43,1861.97 512,1879.94 C514.04,1882.46 963.85,1980.2 967,1980.94 C983.05,1984.76 994.977,1987.7237 1009.917,1991.5437 " fill="none" id="UCRBAC-to-Audit" style="stroke:#475569;stroke-width:1.0;stroke-dasharray:7.0,7.0;"/><polygon fill="#475569" points="1015.73,1993.03,1008.0014,1986.9252,1010.8858,1991.7914,1006.0196,1994.6758,1015.73,1993.03" style="stroke:#475569;stroke-width:1.0;"/><text fill="#000000" font-family="sans-serif" font-size="13" lengthAdjust="spacing" textLength="55.6563" x="728.5" y="1905.4351">&#171;include&#187;</text></g><!--link UC01 to UCLGPD--><g id="link_UC01_UCLGPD"><path d="M442.79,1160.21 C462.22,1152.63 484.1,1144 504,1135.94 C571.86,1108.47 644.0361,1078.1123 694.7861,1056.5923 " fill="none" id="UC01-to-UCLGPD" style="stroke:#475569;stroke-width:1.0;stroke-dasharray:7.0,7.0;"/><polygon fill="#475569" points="700.31,1054.25,690.4626,1054.0809,695.7068,1056.202,693.5857,1061.4461,700.31,1054.25" style="stroke:#475569;stroke-width:1.0;"/><text fill="#000000" font-family="sans-serif" font-size="13" lengthAdjust="spacing" textLength="55.6563" x="541.6118" y="1051.4351">&#171;include&#187;</text><text fill="#000000" font-family="sans-serif" font-size="13" lengthAdjust="spacing" textLength="88.8799" x="525" y="1067.7867">(consentimento</text><text fill="#000000" font-family="sans-serif" font-size="13" lengthAdjust="spacing" textLength="46.249" x="546.3154" y="1084.1382">vigente)</text></g><!--link UC01 to UC04--><g id="link_UC01_UC04"><path d="M461.68,1166.73 C478.02,1159.94 493.52,1150.13 504,1135.94 C518.17,1116.76 505.04,1051.75 512,1028.94 C541.88,931.09 596.37,926.88 626,828.94 C633.42,804.42 621.59,736.35 634,713.94 C649.98,685.09 674.6548,666.1492 700.7348,651.4292 " fill="none" id="UC01-to-UC04" style="stroke:#475569;stroke-width:1.0;stroke-dasharray:7.0,7.0;"/><polygon fill="#475569" points="705.96,648.48,696.1561,649.4203,701.6057,650.9376,700.0884,656.3872,705.96,648.48" style="stroke:#475569;stroke-width:1.0;"/><text fill="#000000" font-family="sans-serif" font-size="13" lengthAdjust="spacing" textLength="55.6563" x="541.655" y="792.4351">&#171;include&#187;</text><text fill="#000000" font-family="sans-serif" font-size="13" lengthAdjust="spacing" textLength="59.9663" x="539.5" y="808.7867">(programa</text><text fill="#000000" font-family="sans-serif" font-size="13" lengthAdjust="spacing" textLength="54.9072" x="542.0295" y="825.1382">lembrete)</text></g><!--link UC03 to UC02--><g id="link_UC03_UC02"><path d="M446.12,1669.9 C519.34,1705.47 636.6228,1762.4488 703.2128,1794.7888 " fill="none" id="UC03-to-UC02" style="stroke:#475569;stroke-width:1.0;stroke-dasharray:7.0,7.0;"/><polygon fill="#475569" points="708.61,1797.41,702.2617,1789.8801,704.1124,1795.2257,698.7668,1797.0763,708.61,1797.41" style="stroke:#475569;stroke-width:1.0;"/><text fill="#000000" font-family="sans-serif" font-size="13" lengthAdjust="spacing" textLength="53.4917" x="542.5823" y="1685.4351">&#171;extend&#187;</text><text fill="#000000" font-family="sans-serif" font-size="13" lengthAdjust="spacing" textLength="107.6563" x="515.5" y="1701.7867">(registra evolu&#231;&#227;o)</text></g><!--link UCCanc to UC04--><g id="link_UCCanc_UC04"><path d="M432.13,1069.66 C458.14,1054.89 488.55,1032.54 504,1002.94 C515.99,979.98 498.79,792.23 512,769.94 C551.32,703.61 628.3589,666.418 686.3089,646.068 " fill="none" id="UCCanc-to-UC04" style="stroke:#475569;stroke-width:1.0;stroke-dasharray:7.0,7.0;"/><polygon fill="#475569" points="691.97,644.08,682.153,643.2879,687.2524,645.7366,684.8037,650.836,691.97,644.08" style="stroke:#475569;stroke-width:1.0;"/><text fill="#000000" font-family="sans-serif" font-size="13" lengthAdjust="spacing" textLength="55.6563" x="541.5422" y="636.4351">&#171;include&#187;</text><text fill="#000000" font-family="sans-serif" font-size="13" lengthAdjust="spacing" textLength="49.1372" x="544.8018" y="652.7867">(cancela</text><text fill="#000000" font-family="sans-serif" font-size="13" lengthAdjust="spacing" textLength="112.7407" x="513" y="669.1382">lembrete pendente)</text></g><!--link UCExp to UCLGPD--><g id="link_UCExp_UCLGPD"><path d="M463.32,1820.17 C479.09,1813.41 493.93,1803.75 504,1789.94 C512.33,1778.52 508.98,1676.76 512,1662.94 C565.23,1419.18 694.5316,1150.539 738.1016,1064.009 " fill="none" id="UCExp-to-UCLGPD" style="stroke:#475569;stroke-width:1.0;stroke-dasharray:7.0,7.0;"/><polygon fill="#475569" points="740.8,1058.65,733.1798,1064.8896,738.5513,1063.1158,740.3251,1068.4874,740.8,1058.65" style="stroke:#475569;stroke-width:1.0;"/><text fill="#000000" font-family="sans-serif" font-size="13" lengthAdjust="spacing" textLength="55.6563" x="541.6118" y="1277.4351">&#171;include&#187;</text><text fill="#000000" font-family="sans-serif" font-size="13" lengthAdjust="spacing" textLength="88.8799" x="525" y="1293.7867">(consentimento</text><text fill="#000000" font-family="sans-serif" font-size="13" lengthAdjust="spacing" textLength="55.6436" x="541.6182" y="1310.1382">adicional)</text></g><!--SRC=[ZLVDRjms4BxhAGRE8LwZ_lUcxI8r8A-zHe1riR1ZzB90G4lCcWb5ggIqTXe4wAbFq1SeUWXI8AUWJw0toPDqXf9MbALrOy26XlC__6OuVWgdWYqCInZ47CRCQaiVrrR3rz__X2jXCrxophdDYhyrfCmm6ClYinAHOyoiYBJK2y62fn3ccJOZcF7OQ9Zgt71LVDHAm5GanB_ahxaf_b6HO2EOCfCmvHnTPqAAtvYADLnVJ06jijWK_tBx7KGiBJvdkTJm30tCoFs26sPWzlFv2Dwm9OFjDqYcagaiJ-GE4NLMhrnAhp2VdHHvQE3XZyv1AoaK7y5jbgLsjBjxTtUtix8MwMIt9dRfDmWaVvr1fi68nMq6iJ0yoeHMWNqh59KdmI95Rzc2NsNl90TYCxMGt1DW4TQfPBCxRdNYCtFB8sOvl0y0Jj3ImkXSnMCiie4danycuMHC76rYRghJW-6pmxCJF0sDqNVLuT7tm-6p7uCF0QRzK_S7Geo1spvMuEA3ZJ1EX48C61PhCrTnS_CRm2muTYqxC_gri1OBmUHSRH8iYY-82prmiiIkHQzuP7XM_6L4QGVfbHKM2QuoNkgmA5ZfhA0uLx_Siio6QRfxjfqm8Pti1LSMIuucuVbpVfznWt4S7_UfdoDyYey4PeBlwQJqTJhfLSIubnopTvepjc09XgTBbGM2uF-SXNaiyB3Ar56eOz-H16gikPhQGj_ThF3aE_gM_jn0H254Ad32neiOKn4nGo4EOSIjrHiETB22uCRr-1NsDCb5pBWKhiTuSDkHkkHHdb9VpjKLLxUiadNV7U6nLfdH4iiJrvvXy_8a70ygDVf6hG-jUCSiPeX5RVkYh9ZatqTYPMyyUrJ11nq98-uUYb_W2E0eUsPJZjDBkhhPIWCF-tAqL3U7bxcQdizEAsdwx2GNBZZsLmMk1-bjRLsFz_QtjX1DJie06SzbLbTvRn-UJ6aQdSYSzsIg8YufqKi4YsakaXZTGF2sup9gciC6hogdLbqJrW65LHUd9Lr6Th0sCgT-IEgNVE66Z87I-VPSrVuHLk9cPUpmiJH3nUyfoT3ycejbhHEg-uxasNsgJSRQ0SCctKiDG1JfuaydENMLcntzrJYYTCxKKc0kKvxSu9YhKRLtz5ZmTGLVyWHVcso5h9UfxCZMXbttj4SIWekcKYVqYL040c7AcgA7uWlctDj9fypUtcXcuhbgr2hhnEj9UqXfdxjNkJ5UvprivzqER4ON8G7V_QO9ko6LKfr6BO_xfMz4sQAjpYDEH_nAIn491uTGuQwIu29INN6587pRErtIZFNtlQrFtMaUZd-QdR6pjVPHflf5DBhSfTeHiFAL_le7RadZ_jUQ5Y_t5Bk_iBrzN4zf_m1de4_IpF9fDtBz0tVN_i7Uy863c3pxqpOWmlVlqNi7BUgm9OjDwf7KVBxii4NjarTlXGZms_VPa6wGDoHgUZoQVHxlq2EewHggx2YtUvRe2_2ZbUIAh03P7E1W7k5ppt0jPirSnNU_4Q50d51gYYyfzasBwzwAjWFVFK6Jgb7k0HRANKJRmCqR4chseg1AfNkCSvNES0KANF4zgcPL9LZ16JRB5QRSP0TkYJVL60U-TDW5_5PsoOrbmaMq3pixnzKEH1aB5SayvfYmUoWUOHu-mgI0rtC9rclPtzQ3W7yDNzjzgyJAssgxm4quQYy2Ix4W40ryFRohXrgfqUu_cBcIrRWVD8LmvHfLkwUAdO9NVIrpDy18my5hhPUeN0qQ9v2YlJg-khBVbXYBXIkQ751Tpxd2zq3MinGs_Ja1nIV8M79JVAB_Tght5zy0M-9uWFgAb18TOtJuRyTIs9n9SiJB3PSlQM93YgaAvo3u3m00]--></g></svg>